<svg xmlns="http://www.w3.org/2000/svg" viewBox="0 0 640 640" width="640" height="640">
  <defs>
    <clipPath id="boxclip"><rect x="0" y="0" width="640" height="640"/></clipPath>
  </defs>
  <g transform="matrix(1.3 0 0 1.3 -96.0 -96.0)" clip-path="url(#boxclip)">
    <path fill-rule="evenodd" opacity="0.4" d="M265.08 41.38C268.28 38.7 273.03 38.8 276.03 41.69C287.9 52.84 298.74 65.43 309.58 78.75C328.78 102.18 345.5 127.37 361.4 153.49C362.84 155.86 365.32 157.31 368.01 157.41C370.69 157.52 373.37 156.28 375.03 154.11C377.5 150.81 379.98 147.4 382.46 144.1C391.34 131.91 400.01 120.15 410.23 110.55C414.77 106.21 417.56 105.38 419.11 105.38C420.96 105.38 423.75 106.31 428.19 110.55C448.11 129.64 464.94 155.45 479.81 179.5C507.06 223.48 534.72 284.9 534.72 353.14C534.72 471.75 438.62 567.86 320 567.86C201.39 567.86 105.28 471.86 105.28 353.24C105.28 264.05 145.54 186.01 185.28 130.57C205.21 102.8 225.13 80.5 240 65.23C248.36 56.66 256.51 48.61 265.08 41.28V41.38ZM242.58 303.69A59.87 59.87 0 1 0 242.58 423.44A59.87 59.87 0 1 0 242.58 303.69ZM404.65 282.01A59.87 59.87 0 1 0 404.65 401.76A59.87 59.87 0 1 0 404.65 282.01Z"/>
    <path fill-rule="evenodd" d="M258.68 35.19L240.72 52.01L219.04 74.83L199.84 97.13L182.19 119.94L165.88 143.37L151.53 166.39L138.83 189.62L127.47 213.36L118.18 236.59L110.44 259.92L104.45 283.05L100.02 307L97.33 330.53L96.51 354.69L97.64 375.65L100.63 396.19L105.69 416.94L113.13 437.89L122.42 457.71L133.57 476.61L146.47 494.05L160.92 510.26L177.65 525.54L195.09 538.55L213.78 549.9L233.6 559.29L254.45 566.83L275.1 572.1L296.57 575.4L318.66 576.64L340.75 575.71L362.33 572.61L384.11 567.35L405.89 559.5L425.71 550.11L445.22 538.34L463.39 524.61L480.01 509.12L495.08 492.19L507.78 474.44L519.14 454.72L528.22 434.59L535.24 413.53L540.2 391.65L542.88 369.97L543.4 347.57L541.85 323.51L538.34 300.18L532.56 275.72L524.4 250.53L514.39 225.96L502.1 200.67L487.34 174.96L465.66 141.82L449.77 120.97L434.38 104.25L427.78 99.19L421.58 96.82L415.6 97.13L409.5 99.81L401.97 106.31L392.47 116.64L368.42 148.23L349.01 117.57L330.33 91.14L308.75 63.99L290.17 43.34L281.19 34.57L274.89 31.26L266.12 31.26L258.68 35.19ZM270.35 48.4L287.79 66.57L309.37 92.48L331.15 122.62L354.48 158.96L361.3 164.64L366.25 166.08L371.21 165.98L375.85 164.43L379.88 161.75L404.65 129.44L419.21 114.47L427.26 122L441.71 138.83L457.4 160.72L476.61 191.17L490.64 216.77L501.69 240.72L510.78 264.67L517.59 288.1L522.44 311.43L525.12 333.53L525.95 355.1L524.81 375.44L521.72 395.16L516.45 415.08L509.43 434.18L500.56 452.35L489.51 470.21L476.71 486.83L462.36 502L446.46 515.73L430.05 527.29L411.78 537.62L393.19 545.77L373.68 552.07L353.35 556.4L333.42 558.68L312.88 558.99L292.75 557.33L273.14 553.72L253.31 548.04L234.42 540.61L216.56 531.32L199.63 520.38L184.05 507.89L169.08 493.33L156.17 477.95L144.71 461.43L135.01 443.78L126.96 425.2L120.76 405.69L116.74 386.28L114.57 367.28L114.16 347.36L115.5 324.65L118.49 302.56L122.93 281.08L129.02 259.2L136.66 237.21L145.85 215.22L156.59 193.54L168.97 171.45L182.91 149.46L198.29 127.68L215.43 105.9L233.8 84.63L254.45 63.16L270.35 48.4ZM242.58 286.14A77.42 77.42 0 1 1 242.58 440.99A77.42 77.42 0 1 1 242.58 286.14ZM242.58 303.69A59.87 59.87 0 1 0 242.58 423.44A59.87 59.87 0 1 0 242.58 303.69ZM404.65 264.46A77.42 77.42 0 1 1 404.65 419.31A77.42 77.42 0 1 1 404.65 264.46ZM404.65 282.01A59.87 59.87 0 1 0 404.65 401.76A59.87 59.87 0 1 0 404.65 282.01ZM242.06 343.44A19.61 19.61 0 1 1 242.06 382.66A19.61 19.61 0 1 1 242.06 343.44ZM404.14 321.76A19.61 19.61 0 1 1 404.14 360.99A19.61 19.61 0 1 1 404.14 321.76ZM225.03 481.25C230.19 472.99 240.51 469.9 249.8 472.99C274.58 486.41 297.29 492.61 320 492.61C342.71 492.61 365.42 486.41 390.2 472.99C399.49 469.9 409.81 472.99 414.98 481.25C409.81 489.51 399.49 495.7 390.2 498.8C365.42 511.19 342.71 517.38 320 517.38C297.29 517.38 274.58 511.19 249.8 498.8C240.51 495.7 230.19 489.51 225.03 481.25Z"/>
  </g>
</svg>