<svg   xmlns="http://www.w3.org/2000/svg"
            xmlns:xlink="http://www.w3.org/1999/xlink"
            width="2520"
            height="1980"
            viewBox="0 0 2520 1980">
            <!-- Define clipPath for rounded border with 2mm margin -->
            <defs>
            <clipPath id="border-clip">
            <rect x="18" y="18" width="2484" height="1944" rx="42.51" ry="42.51"/>
            </clipPath>
            </defs>
            <!-- Thin black border with 2mm margin -->
            <rect x="18" y="18" width="2484" height="1944" fill="none" stroke="black" stroke-width="3" rx="42.51" ry="42.51"/>
            <!-- White background within border, clipped to rounded shape -->
            <rect x="18" y="18" width="2484" height="1944" fill="white" clip-path="url(#border-clip)"/>
            <!-- 1cm (28.3pt) dashed silver grid, offset by 2mm margin -->
            <defs>
            <pattern id="grid" width="84.9" height="84.9" patternUnits="userSpaceOnUse" x="18" y="18">
            <path d="M 84.9 0 L 0 0 0 84.9" fill="none" stroke="black" stroke-width="1.5" stroke-dasharray="6,6"/>
            </pattern>
            </defs>
            <rect x="18" y="18" width="2484" height="1944" fill="url(#grid)" clip-path="url(#border-clip)"/>
            <!-- ERD content placeholder -->
            <g id="erd-content" transform="translate(0, 0)">
            
<!-- Layout Region -->
<defs>
    <clipPath id="layout-region-clip">
        <rect x="42.51" y="42.51" width="2434.98" height="1894.98" rx="42.51" ry="42.51"/>
    </clipPath>
</defs>
<defs>
    <!-- Icon Definitions (Font Awesome Free v7.0.1) -->
    <!-- Not-null icons -->
    <symbol id="not-null-icon-black" viewBox="0 0 640 640">
        <path d="M320 64C324.6 64 329.2 65 333.4 66.9L521.8 146.8C543.8 156.1 560.2 177.8 560.1 204C559.6 303.2 518.8 484.7 346.5 567.2C329.8 575.2 310.4 575.2 293.7 567.2C121.3 484.7 80.6 303.2 80.1 204C80 177.8 96.4 156.1 118.4 146.8L306.7 66.9C310.9 65 315.4 64 320 64z" fill="gray"/>
    </symbol>
    <symbol id="not-null-icon-darkgreen" viewBox="0 0 640 640">
        <path d="M320 64C324.6 64 329.2 65 333.4 66.9L521.8 146.8C543.8 156.1 560.2 177.8 560.1 204C559.6 303.2 518.8 484.7 346.5 567.2C329.8 575.2 310.4 575.2 293.7 567.2C121.3 484.7 80.6 303.2 80.1 204C80 177.8 96.4 156.1 118.4 146.8L306.7 66.9C310.9 65 315.4 64 320 64z" fill="darkgreen"/>
    </symbol>
    <symbol id="not-null-icon-navy" viewBox="0 0 640 640">
        <path d="M320 64C324.6 64 329.2 65 333.4 66.9L521.8 146.8C543.8 156.1 560.2 177.8 560.1 204C559.6 303.2 518.8 484.7 346.5 567.2C329.8 575.2 310.4 575.2 293.7 567.2C121.3 484.7 80.6 303.2 80.1 204C80 177.8 96.4 156.1 118.4 146.8L306.7 66.9C310.9 65 315.4 64 320 64z" fill="navy"/>
    </symbol>
    <symbol id="not-null-icon-maroon" viewBox="0 0 640 640">
        <path d="M320 64C324.6 64 329.2 65 333.4 66.9L521.8 146.8C543.8 156.1 560.2 177.8 560.1 204C559.6 303.2 518.8 484.7 346.5 567.2C329.8 575.2 310.4 575.2 293.7 567.2C121.3 484.7 80.6 303.2 80.1 204C80 177.8 96.4 156.1 118.4 146.8L306.7 66.9C310.9 65 315.4 64 320 64z" fill="maroon"/>
    </symbol>
    <!-- Key icons for primary keys -->
    <symbol id="key-icon-navy" viewBox="0 0 640 640">
        <path d="M400 416C497.2 416 576 337.2 576 240C576 142.8 497.2 64 400 64C302.8 64 224 142.8 224 240C224 258.7 226.9 276.8 232.3 293.7L71 455C66.5 459.5 64 465.6 64 472L64 552C64 565.3 74.7 576 88 576L168 576C181.3 576 192 565.3 192 552L192 512L232 512C245.3 512 256 501.3 256 488L256 448L296 448C302.4 448 308.5 445.5 313 441L346.3 407.7C363.2 413.1 381.3 416 400 416zM440 160C462.1 160 480 177.9 480 200C480 222.1 462.1 240 440 240C417.9 240 400 222.1 400 200C400 177.9 417.9 160 440 160z" fill="navy"/>
    </symbol>
    <symbol id="key-icon-darkgreen" viewBox="0 0 640 640">
        <path d="M400 416C497.2 416 576 337.2 576 240C576 142.8 497.2 64 400 64C302.8 64 224 142.8 224 240C224 258.7 226.9 276.8 232.3 293.7L71 455C66.5 459.5 64 465.6 64 472L64 552C64 565.3 74.7 576 88 576L168 576C181.3 576 192 565.3 192 552L192 512L232 512C245.3 512 256 501.3 256 488L256 448L296 448C302.4 448 308.5 445.5 313 441L346.3 407.7C363.2 413.1 381.3 416 400 416zM440 160C462.1 160 480 177.9 480 200C480 222.1 462.1 240 440 240C417.9 240 400 222.1 400 200C400 177.9 417.9 160 440 160z" fill="darkgreen"/>
    </symbol>
    <symbol id="key-icon-gray" viewBox="0 0 640 640">
        <path d="M400 416C497.2 416 576 337.2 576 240C576 142.8 497.2 64 400 64C302.8 64 224 142.8 224 240C224 258.7 226.9 276.8 232.3 293.7L71 455C66.5 459.5 64 465.6 64 472L64 552C64 565.3 74.7 576 88 576L168 576C181.3 576 192 565.3 192 552L192 512L232 512C245.3 512 256 501.3 256 488L256 448L296 448C302.4 448 308.5 445.5 313 441L346.3 407.7C363.2 413.1 381.3 416 400 416zM440 160C462.1 160 480 177.9 480 200C480 222.1 462.1 240 440 240C417.9 240 400 222.1 400 200C400 177.9 417.9 160 440 160z" fill="gray"/>
    </symbol>
    <!-- Lookup icons -->
    <symbol id="lookup-icon-gray" viewBox="0 0 640 640">
        <path d="M96.5 160L96.5 309.5C96.5 326.5 103.2 342.8 115.2 354.8L307.2 546.8C332.2 571.8 372.7 571.8 397.7 546.8L547.2 397.3C572.2 372.3 572.2 331.8 547.2 306.8L355.2 114.8C343.2 102.7 327 96 310 96L160.5 96C125.2 96 96.5 124.7 96.5 160zM208.5 176C226.2 176 240.5 190.3 240.5 208C240.5 225.7 226.2 240 208.5 240C190.8 240 176.5 225.7 176.5 208C176.5 190.3 190.8 176 208.5 176z" fill="gray"/>
    </symbol>
    <symbol id="lookup-icon-maroon" viewBox="0 0 640 640">
        <path d="M96.5 160L96.5 309.5C96.5 326.5 103.2 342.8 115.2 354.8L307.2 546.8C332.2 571.8 372.7 571.8 397.7 546.8L547.2 397.3C572.2 372.3 572.2 331.8 547.2 306.8L355.2 114.8C343.2 102.7 327 96 310 96L160.5 96C125.2 96 96.5 124.7 96.5 160zM208.5 176C226.2 176 240.5 190.3 240.5 208C240.5 225.7 226.2 240 208.5 240C190.8 240 176.5 225.7 176.5 208C176.5 190.3 190.8 176 208.5 176z" fill="maroon"/>
    </symbol>
    <!-- Unique icons -->
    <symbol id="unique-icon-gray" viewBox="0 0 640 640">
        <path d="M512 320C512 214 426 128 320 128C214 128 128 214 128 320C128 426 214 512 320 512C426 512 512 426 512 320zM64 320C64 178.6 178.6 64 320 64C461.4 64 576 178.6 576 320C576 461.4 461.4 576 320 576C178.6 576 64 461.4 64 320zM320 400C364.2 400 400 364.2 400 320C400 275.8 364.2 240 320 240C275.8 240 240 275.8 240 320C240 364.2 275.8 400 320 400zM320 176C399.5 176 464 240.5 464 320C464 399.5 399.5 464 320 464C240.5 464 176 399.5 176 320C176 240.5 240.5 176 320 176zM288 320C288 302.3 302.3 288 320 288C337.7 288 352 302.3 352 320C352 337.7 337.7 352 320 352C302.3 352 288 337.7 288 320z" fill="gray"/>
    </symbol>
</defs>
<!-- Table Content (clipped to layout region) -->
<g clip-path="url(#layout-region-clip)">
    <!-- table.queries at (59.52, 59.52) -->
<defs>
    <filter id="shadow-queries" x="-20%" y="-20%" width="140%" height="140%">
        <feDropShadow dx="2" dy="2" stdDeviation="1.5" flood-color="rgba(0,0,0,0.3)"/>
    </filter>
</defs>
<g transform="translate(59.519999999999996, 59.519999999999996)" filter="url(#shadow-queries)">
    <rect x="2" y="2" width="850.5" height="1452.06" fill="white" stroke="transparent" stroke-width="3" rx="27" ry="27"/>
    <path d="M 29 2 L 825.5 2 Q 852.5 2 852.5 29 L 852.5 104.06 L 2 104.06 L 2 29 Q 2 2 29 2 Z" fill="skyblue" stroke="transparent" stroke-width="6"/>
    <text x="32" y="64.37" font-family="Cairo, Arial, sans-serif" font-size="48" font-weight="bold">queries</text>    <text x="822.5" y="64.37" font-family="Cairo, Arial, sans-serif" font-size="36" font-weight="bold" fill="navy" text-anchor="end">1000</text>
    <rect x="2" y="104.06" width="850.5" height="90" fill="transparent" stroke="transparent" stroke-width="1.5"/>
    <use href="#key-icon-navy" x="32" y="125.06" width="48" height="48" rx="9.600000000000001" ry="9.600000000000001"/>
    <use href="#not-null-icon-navy" x="774.5" y="125.06" width="48" height="48" rx="9.600000000000001" ry="9.600000000000001"/>
    <text x="110" y="163.46" font-family="Cairo, Arial, sans-serif" font-size="40" fill="navy" font-weight="bold">query_id</text>
    <text x="744.5" y="163.46" font-family="Cairo, Arial, sans-serif" font-size="40" text-anchor="end" fill="navy" font-weight="bold">INTEGER</text>
    <rect x="2" y="194.06" width="850.5" height="90" fill="yellow" stroke="#cccccc" stroke-width="1.5"/>
    <use href="#unique-icon-gray" x="32" y="215.06" width="48" height="48" rx="9.600000000000001" ry="9.600000000000001"/>
    <use href="#not-null-icon-black" x="774.5" y="215.06" width="48" height="48" rx="9.600000000000001" ry="9.600000000000001"/>
    <text x="110" y="253.46" font-family="Cairo, Arial, sans-serif" font-size="40" fill="black" font-weight="normal">query_ref</text>
    <text x="744.5" y="253.46" font-family="Cairo, Arial, sans-serif" font-size="40" text-anchor="end" fill="black" font-weight="normal">INTEGER</text>
    <rect x="2" y="284.06" width="850.5" height="90" fill="yellow" stroke="#cccccc" stroke-width="1.5"/>
    <use href="#not-null-icon-black" x="774.5" y="305.06" width="48" height="48" rx="9.600000000000001" ry="9.600000000000001"/>
    <text x="110" y="343.46" font-family="Cairo, Arial, sans-serif" font-size="40" fill="black" font-weight="normal">name</text>
    <text x="744.5" y="343.46" font-family="Cairo, Arial, sans-serif" font-size="40" text-anchor="end" fill="black" font-weight="normal">VARCHAR(100)</text>
    <rect x="2" y="374.06" width="850.5" height="90" fill="transparent" stroke="#cccccc" stroke-width="1.5"/>
    <text x="110" y="433.46" font-family="Cairo, Arial, sans-serif" font-size="40" fill="black" font-weight="normal">summary</text>
    <text x="744.5" y="433.46" font-family="Cairo, Arial, sans-serif" font-size="40" text-anchor="end" fill="black" font-weight="normal">TEXT</text>
    <rect x="2" y="464.06" width="850.5" height="90" fill="transparent" stroke="#cccccc" stroke-width="1.5"/>
    <use href="#not-null-icon-black" x="774.5" y="485.06" width="48" height="48" rx="9.600000000000001" ry="9.600000000000001"/>
    <text x="110" y="523.46" font-family="Cairo, Arial, sans-serif" font-size="40" fill="black" font-weight="normal">query_code</text>
    <text x="744.5" y="523.46" font-family="Cairo, Arial, sans-serif" font-size="40" text-anchor="end" fill="black" font-weight="normal">TEXT</text>
    <rect x="2" y="554.06" width="850.5" height="90" fill="transparent" stroke="#cccccc" stroke-width="1.5"/>
    <use href="#lookup-icon-maroon" x="32" y="575.06" width="48" height="48" rx="9.600000000000001" ry="9.600000000000001"/>
    <use href="#not-null-icon-maroon" x="774.5" y="575.06" width="48" height="48" rx="9.600000000000001" ry="9.600000000000001"/>
    <text x="110" y="613.4599999999999" font-family="Cairo, Arial, sans-serif" font-size="40" fill="maroon" font-weight="normal">query_status_lua_27</text>
    <text x="744.5" y="613.4599999999999" font-family="Cairo, Arial, sans-serif" font-size="40" text-anchor="end" fill="maroon" font-weight="normal">INTEGER</text>
    <rect x="2" y="644.06" width="850.5" height="90" fill="transparent" stroke="#cccccc" stroke-width="1.5"/>
    <use href="#lookup-icon-maroon" x="32" y="665.06" width="48" height="48" rx="9.600000000000001" ry="9.600000000000001"/>
    <use href="#not-null-icon-maroon" x="774.5" y="665.06" width="48" height="48" rx="9.600000000000001" ry="9.600000000000001"/>
    <text x="110" y="703.4599999999999" font-family="Cairo, Arial, sans-serif" font-size="40" fill="maroon" font-weight="normal">query_type_lua_28</text>
    <text x="744.5" y="703.4599999999999" font-family="Cairo, Arial, sans-serif" font-size="40" text-anchor="end" fill="maroon" font-weight="normal">INTEGER</text>
    <rect x="2" y="734.06" width="850.5" height="90" fill="transparent" stroke="#cccccc" stroke-width="1.5"/>
    <use href="#lookup-icon-maroon" x="32" y="755.06" width="48" height="48" rx="9.600000000000001" ry="9.600000000000001"/>
    <use href="#not-null-icon-maroon" x="774.5" y="755.06" width="48" height="48" rx="9.600000000000001" ry="9.600000000000001"/>
    <text x="110" y="793.4599999999999" font-family="Cairo, Arial, sans-serif" font-size="40" fill="maroon" font-weight="normal">query_dialect_lua_30</text>
    <text x="744.5" y="793.4599999999999" font-family="Cairo, Arial, sans-serif" font-size="40" text-anchor="end" fill="maroon" font-weight="normal">INTEGER</text>
    <rect x="2" y="824.06" width="850.5" height="90" fill="transparent" stroke="#cccccc" stroke-width="1.5"/>
    <text x="110" y="883.4599999999999" font-family="Cairo, Arial, sans-serif" font-size="40" fill="forestgreen" font-weight="normal">collection</text>
    <text x="744.5" y="883.4599999999999" font-family="Cairo, Arial, sans-serif" font-size="40" text-anchor="end" fill="forestgreen" font-weight="normal">TEXT</text>
    <rect x="2" y="914.06" width="850.5" height="90" fill="transparent" stroke="#cccccc" stroke-width="1.5"/>
    <text x="110" y="973.4599999999999" font-family="Cairo, Arial, sans-serif" font-size="40" fill="forestgreen" font-weight="normal">valid_after</text>
    <text x="744.5" y="973.4599999999999" font-family="Cairo, Arial, sans-serif" font-size="40" text-anchor="end" fill="forestgreen" font-weight="normal">TEXT</text>
    <rect x="2" y="1004.06" width="850.5" height="90" fill="transparent" stroke="#cccccc" stroke-width="1.5"/>
    <text x="110" y="1063.46" font-family="Cairo, Arial, sans-serif" font-size="40" fill="forestgreen" font-weight="normal">valid_until</text>
    <text x="744.5" y="1063.46" font-family="Cairo, Arial, sans-serif" font-size="40" text-anchor="end" fill="forestgreen" font-weight="normal">TEXT</text>
    <rect x="2" y="1094.06" width="850.5" height="90" fill="transparent" stroke="#cccccc" stroke-width="1.5"/>
    <use href="#not-null-icon-darkgreen" x="774.5" y="1115.06" width="48" height="48" rx="9.600000000000001" ry="9.600000000000001"/>
    <text x="110" y="1153.46" font-family="Cairo, Arial, sans-serif" font-size="40" fill="forestgreen" font-weight="normal">created_id</text>
    <text x="744.5" y="1153.46" font-family="Cairo, Arial, sans-serif" font-size="40" text-anchor="end" fill="forestgreen" font-weight="normal">INTEGER</text>
    <rect x="2" y="1184.06" width="850.5" height="90" fill="transparent" stroke="#cccccc" stroke-width="1.5"/>
    <use href="#not-null-icon-darkgreen" x="774.5" y="1205.06" width="48" height="48" rx="9.600000000000001" ry="9.600000000000001"/>
    <text x="110" y="1243.46" font-family="Cairo, Arial, sans-serif" font-size="40" fill="forestgreen" font-weight="normal">created_at</text>
    <text x="744.5" y="1243.46" font-family="Cairo, Arial, sans-serif" font-size="40" text-anchor="end" fill="forestgreen" font-weight="normal">TEXT</text>
    <rect x="2" y="1274.06" width="850.5" height="90" fill="transparent" stroke="#cccccc" stroke-width="1.5"/>
    <use href="#not-null-icon-darkgreen" x="774.5" y="1295.06" width="48" height="48" rx="9.600000000000001" ry="9.600000000000001"/>
    <text x="110" y="1333.46" font-family="Cairo, Arial, sans-serif" font-size="40" fill="forestgreen" font-weight="normal">updated_id</text>
    <text x="744.5" y="1333.46" font-family="Cairo, Arial, sans-serif" font-size="40" text-anchor="end" fill="forestgreen" font-weight="normal">INTEGER</text>
    <rect x="2" y="1364.06" width="850.5" height="90" fill="transparent" stroke="transparent" stroke-width="1.5"/>
    <use href="#not-null-icon-darkgreen" x="774.5" y="1385.06" width="48" height="48" rx="9.600000000000001" ry="9.600000000000001"/>
    <text x="110" y="1423.46" font-family="Cairo, Arial, sans-serif" font-size="40" fill="forestgreen" font-weight="normal">updated_at</text>
    <text x="744.5" y="1423.46" font-family="Cairo, Arial, sans-serif" font-size="40" text-anchor="end" fill="forestgreen" font-weight="normal">TEXT</text>
    <rect x="2" y="2" width="850.5" height="1452.06" fill="transparent" stroke="silver" stroke-width="3" rx="27" ry="27"/>
</g>
</g>

            </g>
            </svg>
