<svg xmlns="http://www.w3.org/2000/svg" width="640" height="656" viewBox="0 0 640 656" fill="none">
  <path 
    d="M266.8 65.9C269.9 63.3 274.5 63.4 277.4 66.2C288.9 77 299.4 89.2 309.9 102.1C328.5 124.8 344.7 149.2 360.1 174.5C361.5 176.8 363.9 178.2 366.5 178.3C369.1 178.4 371.7 177.2 373.3 175.1C375.7 171.9 378.1 168.6 380.5 165.4C389.1 153.6 397.5 142.2 407.4 132.9C411.8 128.7 414.5 127.9 416 127.9C417.8 127.9 420.5 128.8 424.8 132.9C444.1 151.4 460.4 176.4 474.8 199.7C501.2 242.3 528 301.8 528 367.9C528 482.8 434.9 575.9 320 575.9C205.1 575.9 112 482.9 112 368C112 281.6 151 206 189.5 152.3C208.8 125.4 228.1 103.8 242.5 89C250.6 80.7 258.5 72.9 266.8 65.8V65.9Z" 
    fill="currentColor" 
    fill-opacity="0.4" />
  <path 
    d="M266.8 65.9C269.9 63.3 274.5 63.4 277.4 66.2C288.9 77 299.4 89.2 309.9 102.1C328.5 124.8 344.7 149.2 360.1 174.5C361.5 176.8 363.9 178.2 366.5 178.3C369.1 178.4 371.7 177.2 373.3 175.1C375.7 171.9 378.1 168.6 380.5 165.4C389.1 153.6 397.5 142.2 407.4 132.9C411.8 128.7 414.5 127.9 416 127.9C417.8 127.9 420.5 128.8 424.8 132.9C444.1 151.4 460.4 176.4 474.8 199.7C501.2 242.3 528 301.8 528 367.9C528 482.8 434.9 575.9 320 575.9C205.1 575.9 112 482.9 112 368C112 281.6 151 206 189.5 152.3C208.8 125.4 228.1 103.8 242.5 89C250.6 80.7 258.5 72.9 266.8 65.8V65.9Z" 
    fill="transparent" 
    stroke="currentColor" 
    stroke-width="17" 
    stroke-linejoin="round" />
  <circle 
    cx="245" 
    cy="378" 
    r="66.5" 
    fill="transparent" 
    stroke="currentColor" 
    stroke-width="17" />
  <circle 
    cx="402" 
    cy="357" 
    r="66.5" 
    fill="transparent" 
    stroke="currentColor" 
    stroke-width="17" />
  <circle 
    cx="244.5" 
    cy="377.5" 
    r="12" 
    fill="currentColor" 
    stroke="currentColor" 
    stroke-width="7" />
  <circle 
    cx="401.5" 
    cy="356.5" 
    r="12" 
    fill="currentColor" 
    stroke="currentColor" 
    stroke-width="7" />
  <path 
    d="M424.5 482.5C362.88 550.112 306.777 562.338 229.5 499.5C309.072 502.221 352.167 499.592 424.5 482.5Z" 
    fill="transparent" 
    stroke="currentColor" 
    stroke-width="17" 
    stroke-linecap="round" 
    stroke-linejoin="round" />
</svg>
