<svg width="640" height="656" viewBox="0 0 640 656" xmlns="http://www.w3.org/2000/svg" style="background: transparent; background-color: transparent; color-scheme: light dark;">
<path opacity="0.4" fill-rule="evenodd" clip-rule="evenodd" d="M112 352.093C112 352.062 112 352.031 112 352V352.2C112 352.164 112 352.128 112 352.093Z" fill="green"/>
<path d="M266.8 65.9C269.9 63.3 274.5 63.4 277.4 66.2C288.9 77 299.4 89.2 309.9 102.1C328.5 124.8 344.7 149.2 360.1 174.5C361.5 176.8 363.9 178.2 366.5 178.3C369.1 178.4 371.7 177.2 373.3 175.1C375.7 171.9 378.1 168.6 380.5 165.4C389.1 153.6 397.5 142.2 407.4 132.9C411.8 128.7 414.5 127.9 416 127.9C417.8 127.9 420.5 128.8 424.8 132.9C444.1 151.4 460.4 176.4 474.8 199.7C501.2 242.3 528 301.8 528 367.9C528 482.8 434.9 575.9 320 575.9C205.1 575.9 112 482.9 112 368C112 281.6 151 206 189.5 152.3C208.8 125.4 228.1 103.8 242.5 89C250.6 80.7 258.5 72.9 266.8 65.8V65.9ZM288.4 54.5C279.5 46.2 265.8 45.8 256.5 53.6C247.5 61.2 239.2 69.4 231 77.8C216.1 93.1 196.3 115.3 176.4 142.9C137 197.9 95.9 276.8 95.9 367.9C95.9 491.6 196.2 591.9 319.9 591.9C443.6 591.9 544 491.7 544 368C544 297.7 515.6 235.3 488.4 191.4C474 168.1 456.8 141.6 435.9 121.5C430.3 116.1 423.8 112.1 416 112.1C408.5 112.1 402.1 116.1 396.5 121.4C385.6 131.7 376.2 144.4 367.7 156.1C353.9 134 339.1 112.4 322.5 92C311.9 79 300.8 66.1 288.6 54.6L288.4 54.5Z" fill="black"/>
<circle cx="245" cy="378" r="66.5" stroke="black" stroke-width="17" fill="silver"/>
<circle cx="402" cy="357" r="66.5" stroke="black" stroke-width="17" fill="silver"/>
<circle cx="401.5" cy="356.5" r="12" fill="black" stroke="black" stroke-width="7"/>
<circle cx="244.5" cy="377.5" r="12" fill="black" stroke="black" stroke-width="7"/>
<path d="M424.5 482.5C362.88 550.112 306.777 562.338 229.5 499.5C309.072 502.221 352.167 499.592 424.5 482.5Z" stroke="black" stroke-width="17" stroke-linecap="round" stroke-linejoin="round" fill="silver"/>
</svg>
