<svg   xmlns="http://www.w3.org/2000/svg"
                                    xmlns:xlink="http://www.w3.org/1999/xlink"
                                    width="2520"
                                    height="1980"
                                    viewBox="0 0 2520 1980">
                                <!-- Define clipPath for rounded border with 2mm margin -->
                                <defs>
                                    <clipPath id="border-clip">
                                    <rect x="18" y="18" width="2484" height="1944" rx="42.51" ry="42.51"/>
                                    </clipPath>
                                </defs>
                                <!-- Thin black border with 2mm margin -->
                                <rect x="18" y="18" width="2484" height="1944" fill="none" stroke="black" stroke-width="3" rx="42.51" ry="42.51"/>
                                <!-- White background within border, clipped to rounded shape -->
                                <rect x="18" y="18" width="2484" height="1944" fill="white" clip-path="url(#border-clip)"/>
                                <!-- 1cm (28.3pt) dashed silver grid, offset by 2mm margin -->
                                <defs>
                                    <pattern id="grid" width="84.9" height="84.9" patternUnits="userSpaceOnUse" x="18" y="18">
                                        <path d="M 84.9 0 L 0 0 0 84.9" fill="none" stroke="black" stroke-width="1.5" stroke-dasharray="6,6"/>
                                    </pattern>
                                </defs>
                                <rect x="18" y="18" width="2484" height="1944" fill="url(#grid)" clip-path="url(#border-clip)"/>
                                <!-- ERD content placeholder -->
                                <g id="erd-content" transform="translate(0, 0)">
                                    
<!-- Layout Region -->
<defs>
    <clipPath id="layout-region-clip">
        <rect x="42.51" y="42.51" width="2434.98" height="1894.98" rx="42.51" ry="42.51"/>
    </clipPath>
</defs>
<defs>
    <!-- Icon Definitions (Font Awesome Free v7.0.1) -->
    <!-- Not-null icons -->
    <symbol id="not-null-icon-black" viewBox="0 0 640 640">
        <path d="M320 64C324.6 64 329.2 65 333.4 66.9L521.8 146.8C543.8 156.1 560.2 177.8 560.1 204C559.6 303.2 518.8 484.7 346.5 567.2C329.8 575.2 310.4 575.2 293.7 567.2C121.3 484.7 80.6 303.2 80.1 204C80 177.8 96.4 156.1 118.4 146.8L306.7 66.9C310.9 65 315.4 64 320 64z" fill="gray"/>
    </symbol>
    <symbol id="not-null-icon-darkgreen" viewBox="0 0 640 640">
        <path d="M320 64C324.6 64 329.2 65 333.4 66.9L521.8 146.8C543.8 156.1 560.2 177.8 560.1 204C559.6 303.2 518.8 484.7 346.5 567.2C329.8 575.2 310.4 575.2 293.7 567.2C121.3 484.7 80.6 303.2 80.1 204C80 177.8 96.4 156.1 118.4 146.8L306.7 66.9C310.9 65 315.4 64 320 64z" fill="darkgreen"/>
    </symbol>
    <symbol id="not-null-icon-navy" viewBox="0 0 640 640">
        <path d="M320 64C324.6 64 329.2 65 333.4 66.9L521.8 146.8C543.8 156.1 560.2 177.8 560.1 204C559.6 303.2 518.8 484.7 346.5 567.2C329.8 575.2 310.4 575.2 293.7 567.2C121.3 484.7 80.6 303.2 80.1 204C80 177.8 96.4 156.1 118.4 146.8L306.7 66.9C310.9 65 315.4 64 320 64z" fill="navy"/>
    </symbol>
    <symbol id="not-null-icon-maroon" viewBox="0 0 640 640">
        <path d="M320 64C324.6 64 329.2 65 333.4 66.9L521.8 146.8C543.8 156.1 560.2 177.8 560.1 204C559.6 303.2 518.8 484.7 346.5 567.2C329.8 575.2 310.4 575.2 293.7 567.2C121.3 484.7 80.6 303.2 80.1 204C80 177.8 96.4 156.1 118.4 146.8L306.7 66.9C310.9 65 315.4 64 320 64z" fill="maroon"/>
    </symbol>
    <!-- Key icons for primary keys -->
    <symbol id="key-icon-navy" viewBox="0 0 640 640">
        <path d="M400 416C497.2 416 576 337.2 576 240C576 142.8 497.2 64 400 64C302.8 64 224 142.8 224 240C224 258.7 226.9 276.8 232.3 293.7L71 455C66.5 459.5 64 465.6 64 472L64 552C64 565.3 74.7 576 88 576L168 576C181.3 576 192 565.3 192 552L192 512L232 512C245.3 512 256 501.3 256 488L256 448L296 448C302.4 448 308.5 445.5 313 441L346.3 407.7C363.2 413.1 381.3 416 400 416zM440 160C462.1 160 480 177.9 480 200C480 222.1 462.1 240 440 240C417.9 240 400 222.1 400 200C400 177.9 417.9 160 440 160z" fill="navy"/>
    </symbol>
    <symbol id="key-icon-darkgreen" viewBox="0 0 640 640">
        <path d="M400 416C497.2 416 576 337.2 576 240C576 142.8 497.2 64 400 64C302.8 64 224 142.8 224 240C224 258.7 226.9 276.8 232.3 293.7L71 455C66.5 459.5 64 465.6 64 472L64 552C64 565.3 74.7 576 88 576L168 576C181.3 576 192 565.3 192 552L192 512L232 512C245.3 512 256 501.3 256 488L256 448L296 448C302.4 448 308.5 445.5 313 441L346.3 407.7C363.2 413.1 381.3 416 400 416zM440 160C462.1 160 480 177.9 480 200C480 222.1 462.1 240 440 240C417.9 240 400 222.1 400 200C400 177.9 417.9 160 440 160z" fill="darkgreen"/>
    </symbol>
    <symbol id="key-icon-gray" viewBox="0 0 640 640">
        <path d="M400 416C497.2 416 576 337.2 576 240C576 142.8 497.2 64 400 64C302.8 64 224 142.8 224 240C224 258.7 226.9 276.8 232.3 293.7L71 455C66.5 459.5 64 465.6 64 472L64 552C64 565.3 74.7 576 88 576L168 576C181.3 576 192 565.3 192 552L192 512L232 512C245.3 512 256 501.3 256 488L256 448L296 448C302.4 448 308.5 445.5 313 441L346.3 407.7C363.2 413.1 381.3 416 400 416zM440 160C462.1 160 480 177.9 480 200C480 222.1 462.1 240 440 240C417.9 240 400 222.1 400 200C400 177.9 417.9 160 440 160z" fill="gray"/>
    </symbol>
    <!-- Lookup icons -->
    <symbol id="lookup-icon-gray" viewBox="0 0 640 640">
        <path d="M96.5 160L96.5 309.5C96.5 326.5 103.2 342.8 115.2 354.8L307.2 546.8C332.2 571.8 372.7 571.8 397.7 546.8L547.2 397.3C572.2 372.3 572.2 331.8 547.2 306.8L355.2 114.8C343.2 102.7 327 96 310 96L160.5 96C125.2 96 96.5 124.7 96.5 160zM208.5 176C226.2 176 240.5 190.3 240.5 208C240.5 225.7 226.2 240 208.5 240C190.8 240 176.5 225.7 176.5 208C176.5 190.3 190.8 176 208.5 176z" fill="gray"/>
    </symbol>
    <symbol id="lookup-icon-maroon" viewBox="0 0 640 640">
        <path d="M96.5 160L96.5 309.5C96.5 326.5 103.2 342.8 115.2 354.8L307.2 546.8C332.2 571.8 372.7 571.8 397.7 546.8L547.2 397.3C572.2 372.3 572.2 331.8 547.2 306.8L355.2 114.8C343.2 102.7 327 96 310 96L160.5 96C125.2 96 96.5 124.7 96.5 160zM208.5 176C226.2 176 240.5 190.3 240.5 208C240.5 225.7 226.2 240 208.5 240C190.8 240 176.5 225.7 176.5 208C176.5 190.3 190.8 176 208.5 176z" fill="maroon"/>
    </symbol>
    <!-- Unique icons -->
    <symbol id="unique-icon-gray" viewBox="0 0 640 640">
        <path d="M512 320C512 214 426 128 320 128C214 128 128 214 128 320C128 426 214 512 320 512C426 512 512 426 512 320zM64 320C64 178.6 178.6 64 320 64C461.4 64 576 178.6 576 320C576 461.4 461.4 576 320 576C178.6 576 64 461.4 64 320zM320 400C364.2 400 400 364.2 400 320C400 275.8 364.2 240 320 240C275.8 240 240 275.8 240 320C240 364.2 275.8 400 320 400zM320 176C399.5 176 464 240.5 464 320C464 399.5 399.5 464 320 464C240.5 464 176 399.5 176 320C176 240.5 240.5 176 320 176zM288 320C288 302.3 302.3 288 320 288C337.7 288 352 302.3 352 320C352 337.7 337.7 352 320 352C302.3 352 288 337.7 288 320z" fill="gray"/>
    </symbol>
</defs>
<!-- Table Content (clipped to layout region) -->
<g clip-path="url(#layout-region-clip)">
    <!-- table.queries at (59.52, 59.52) -->
<defs>
    <filter id="shadow-queries" x="-20%" y="-20%" width="140%" height="140%">
        <feDropShadow dx="2" dy="2" stdDeviation="1.5" flood-color="rgba(0,0,0,0.3)"/>
    </filter>
</defs>
<g transform="translate(59.519999999999996, 59.519999999999996)" filter="url(#shadow-queries)">
    <rect x="1.7579791323448655" y="1.7579791323448655" width="747.580626029654" height="1434.5637113673806" fill="white" stroke="transparent" stroke-width="2.636968698517298" rx="23.732718286655683" ry="23.732718286655683"/>
    <path d="M 25.490697419000547 1.7579791323448655 L 725.6058868753432 1.7579791323448655 Q 749.3386051619989 1.7579791323448655 749.3386051619989 25.490697419000547 L 749.3386051619989 91.46765425590335 L 1.7579791323448655 91.46765425590335 L 1.7579791323448655 25.490697419000547 Q 1.7579791323448655 1.7579791323448655 25.490697419000547 1.7579791323448655 Z" fill="skyblue" stroke="transparent" stroke-width="5.273937397034596"/>
    <text x="28.127666117517848" y="56.58055837451949" font-family="Cairo, Arial, sans-serif" font-size="42.19149917627677" font-weight="bold">QUERIES</text>    <text x="722.9689181768259" y="56.58055837451949" font-family="Cairo, Arial, sans-serif" font-size="31.643624382207577" font-weight="bold" fill="navy" text-anchor="end">1000</text>
    <rect x="1.7579791323448655" y="91.46765425590335" width="747.580626029654" height="79.10906095551894" fill="transparent" stroke="transparent" stroke-width="1.318484349258649"/>
    <use href="#key-icon-navy" x="28.127666117517848" y="109.92643514552444" width="42.19149917627677" height="42.19149917627677" rx="8.438299835255355" ry="8.438299835255355"/>
    <use href="#not-null-icon-navy" x="680.7774190005491" y="109.92643514552444" width="42.19149917627677" height="42.19149917627677" rx="8.438299835255355" ry="8.438299835255355"/>
    <text x="96.6888522789676" y="143.67963448654587" font-family="Cairo, Arial, sans-serif" font-size="35.159582646897306" fill="navy" font-weight="bold">QUERY_ID</text>
    <text x="654.4077320153762" y="143.67963448654587" font-family="Cairo, Arial, sans-serif" font-size="35.159582646897306" text-anchor="end" fill="navy" font-weight="bold">INTEGER</text>
    <rect x="1.7579791323448655" y="170.5767152114223" width="747.580626029654" height="79.10906095551894" fill="transparent" stroke="#cccccc" stroke-width="1.318484349258649"/>
    <use href="#unique-icon-gray" x="28.127666117517848" y="189.0354961010434" width="42.19149917627677" height="42.19149917627677" rx="8.438299835255355" ry="8.438299835255355"/>
    <use href="#not-null-icon-black" x="680.7774190005491" y="189.0354961010434" width="42.19149917627677" height="42.19149917627677" rx="8.438299835255355" ry="8.438299835255355"/>
    <text x="96.6888522789676" y="222.7886954420648" font-family="Cairo, Arial, sans-serif" font-size="35.159582646897306" fill="black" font-weight="normal">QUERY_REF</text>
    <text x="654.4077320153762" y="222.7886954420648" font-family="Cairo, Arial, sans-serif" font-size="35.159582646897306" text-anchor="end" fill="black" font-weight="normal">INTEGER</text>
    <rect x="1.7579791323448655" y="249.68577616694125" width="747.580626029654" height="79.10906095551894" fill="transparent" stroke="#cccccc" stroke-width="1.318484349258649"/>
    <use href="#lookup-icon-maroon" x="28.127666117517848" y="268.14455705656235" width="42.19149917627677" height="42.19149917627677" rx="8.438299835255355" ry="8.438299835255355"/>
    <use href="#not-null-icon-maroon" x="680.7774190005491" y="268.14455705656235" width="42.19149917627677" height="42.19149917627677" rx="8.438299835255355" ry="8.438299835255355"/>
    <text x="96.6888522789676" y="301.89775639758375" font-family="Cairo, Arial, sans-serif" font-size="35.159582646897306" fill="maroon" font-weight="normal">QUERY_STATUS_A27</text>
    <text x="654.4077320153762" y="301.89775639758375" font-family="Cairo, Arial, sans-serif" font-size="35.159582646897306" text-anchor="end" fill="maroon" font-weight="normal">INTEGER</text>
    <rect x="1.7579791323448655" y="328.7948371224602" width="747.580626029654" height="79.10906095551894" fill="transparent" stroke="#cccccc" stroke-width="1.318484349258649"/>
    <use href="#lookup-icon-maroon" x="28.127666117517848" y="347.2536180120813" width="42.19149917627677" height="42.19149917627677" rx="8.438299835255355" ry="8.438299835255355"/>
    <use href="#not-null-icon-maroon" x="680.7774190005491" y="347.2536180120813" width="42.19149917627677" height="42.19149917627677" rx="8.438299835255355" ry="8.438299835255355"/>
    <text x="96.6888522789676" y="381.0068173531027" font-family="Cairo, Arial, sans-serif" font-size="35.159582646897306" fill="maroon" font-weight="normal">QUERY_TYPE_A28</text>
    <text x="654.4077320153762" y="381.0068173531027" font-family="Cairo, Arial, sans-serif" font-size="35.159582646897306" text-anchor="end" fill="maroon" font-weight="normal">INTEGER</text>
    <rect x="1.7579791323448655" y="407.90389807797914" width="747.580626029654" height="79.10906095551894" fill="transparent" stroke="#cccccc" stroke-width="1.318484349258649"/>
    <use href="#lookup-icon-maroon" x="28.127666117517848" y="426.36267896760023" width="42.19149917627677" height="42.19149917627677" rx="8.438299835255355" ry="8.438299835255355"/>
    <use href="#not-null-icon-maroon" x="680.7774190005491" y="426.36267896760023" width="42.19149917627677" height="42.19149917627677" rx="8.438299835255355" ry="8.438299835255355"/>
    <text x="96.6888522789676" y="460.11587830862163" font-family="Cairo, Arial, sans-serif" font-size="35.159582646897306" fill="maroon" font-weight="normal">QUERY_DIALECT_A30</text>
    <text x="654.4077320153762" y="460.11587830862163" font-family="Cairo, Arial, sans-serif" font-size="35.159582646897306" text-anchor="end" fill="maroon" font-weight="normal">INTEGER</text>
    <rect x="1.7579791323448655" y="487.0129590334981" width="747.580626029654" height="79.10906095551894" fill="transparent" stroke="#cccccc" stroke-width="1.318484349258649"/>
    <use href="#lookup-icon-maroon" x="28.127666117517848" y="505.4717399231192" width="42.19149917627677" height="42.19149917627677" rx="8.438299835255355" ry="8.438299835255355"/>
    <use href="#not-null-icon-maroon" x="680.7774190005491" y="505.4717399231192" width="42.19149917627677" height="42.19149917627677" rx="8.438299835255355" ry="8.438299835255355"/>
    <text x="96.6888522789676" y="539.2249392641406" font-family="Cairo, Arial, sans-serif" font-size="35.159582646897306" fill="maroon" font-weight="normal">QUERY_QUEUE_A58</text>
    <text x="654.4077320153762" y="539.2249392641406" font-family="Cairo, Arial, sans-serif" font-size="35.159582646897306" text-anchor="end" fill="maroon" font-weight="normal">INTEGER</text>
    <rect x="1.7579791323448655" y="566.122019989017" width="747.580626029654" height="79.10906095551894" fill="transparent" stroke="#cccccc" stroke-width="1.318484349258649"/>
    <use href="#not-null-icon-black" x="680.7774190005491" y="584.580800878638" width="42.19149917627677" height="42.19149917627677" rx="8.438299835255355" ry="8.438299835255355"/>
    <text x="96.6888522789676" y="618.3340002196595" font-family="Cairo, Arial, sans-serif" font-size="35.159582646897306" fill="black" font-weight="normal">QUERY_TIMEOUT</text>
    <text x="654.4077320153762" y="618.3340002196595" font-family="Cairo, Arial, sans-serif" font-size="35.159582646897306" text-anchor="end" fill="black" font-weight="normal">INTEGER</text>
    <rect x="1.7579791323448655" y="645.2310809445358" width="747.580626029654" height="79.10906095551894" fill="transparent" stroke="#cccccc" stroke-width="1.318484349258649"/>
    <use href="#not-null-icon-black" x="680.7774190005491" y="663.6898618341569" width="42.19149917627677" height="42.19149917627677" rx="8.438299835255355" ry="8.438299835255355"/>
    <text x="96.6888522789676" y="697.4430611751784" font-family="Cairo, Arial, sans-serif" font-size="35.159582646897306" fill="black" font-weight="normal">QUERY_CODE</text>
    <text x="654.4077320153762" y="697.4430611751784" font-family="Cairo, Arial, sans-serif" font-size="35.159582646897306" text-anchor="end" fill="black" font-weight="normal">CLOB(100K)</text>
    <rect x="1.7579791323448655" y="724.3401419000548" width="747.580626029654" height="79.10906095551894" fill="transparent" stroke="#cccccc" stroke-width="1.318484349258649"/>
    <use href="#not-null-icon-black" x="680.7774190005491" y="742.7989227896759" width="42.19149917627677" height="42.19149917627677" rx="8.438299835255355" ry="8.438299835255355"/>
    <text x="96.6888522789676" y="776.5521221306974" font-family="Cairo, Arial, sans-serif" font-size="35.159582646897306" fill="black" font-weight="normal">NAME</text>
    <text x="654.4077320153762" y="776.5521221306974" font-family="Cairo, Arial, sans-serif" font-size="35.159582646897306" text-anchor="end" fill="black" font-weight="normal">VARCHAR(250)</text>
    <rect x="1.7579791323448655" y="803.4492028555738" width="747.580626029654" height="79.10906095551894" fill="transparent" stroke="#cccccc" stroke-width="1.318484349258649"/>
    <text x="96.6888522789676" y="855.6611830862164" font-family="Cairo, Arial, sans-serif" font-size="35.159582646897306" fill="black" font-weight="normal">SUMMARY</text>
    <text x="654.4077320153762" y="855.6611830862164" font-family="Cairo, Arial, sans-serif" font-size="35.159582646897306" text-anchor="end" fill="black" font-weight="normal">CLOB(100K)</text>
    <rect x="1.7579791323448655" y="882.5582638110927" width="747.580626029654" height="79.10906095551894" fill="transparent" stroke="#cccccc" stroke-width="1.318484349258649"/>
    <text x="96.6888522789676" y="934.7702440417353" font-family="Cairo, Arial, sans-serif" font-size="35.159582646897306" fill="black" font-weight="normal">COLLECTION</text>
    <text x="654.4077320153762" y="934.7702440417353" font-family="Cairo, Arial, sans-serif" font-size="35.159582646897306" text-anchor="end" fill="black" font-weight="normal">CLOB(100K)</text>
    <rect x="1.7579791323448655" y="961.6673247666116" width="747.580626029654" height="79.10906095551894" fill="transparent" stroke="#cccccc" stroke-width="1.318484349258649"/>
    <text x="96.6888522789676" y="1013.8793049972542" font-family="Cairo, Arial, sans-serif" font-size="35.159582646897306" fill="forestgreen" font-weight="normal">VALID_AFTER</text>
    <text x="654.4077320153762" y="1013.8793049972542" font-family="Cairo, Arial, sans-serif" font-size="35.159582646897306" text-anchor="end" fill="forestgreen" font-weight="normal">TIMESTAMP</text>
    <rect x="1.7579791323448655" y="1040.7763857221307" width="747.580626029654" height="79.10906095551894" fill="transparent" stroke="#cccccc" stroke-width="1.318484349258649"/>
    <text x="96.6888522789676" y="1092.9883659527732" font-family="Cairo, Arial, sans-serif" font-size="35.159582646897306" fill="forestgreen" font-weight="normal">VALID_UNTIL</text>
    <text x="654.4077320153762" y="1092.9883659527732" font-family="Cairo, Arial, sans-serif" font-size="35.159582646897306" text-anchor="end" fill="forestgreen" font-weight="normal">TIMESTAMP</text>
    <rect x="1.7579791323448655" y="1119.8854466776497" width="747.580626029654" height="79.10906095551894" fill="transparent" stroke="#cccccc" stroke-width="1.318484349258649"/>
    <use href="#not-null-icon-darkgreen" x="680.7774190005491" y="1138.3442275672708" width="42.19149917627677" height="42.19149917627677" rx="8.438299835255355" ry="8.438299835255355"/>
    <text x="96.6888522789676" y="1172.0974269082922" font-family="Cairo, Arial, sans-serif" font-size="35.159582646897306" fill="forestgreen" font-weight="normal">CREATED_ID</text>
    <text x="654.4077320153762" y="1172.0974269082922" font-family="Cairo, Arial, sans-serif" font-size="35.159582646897306" text-anchor="end" fill="forestgreen" font-weight="normal">INTEGER</text>
    <rect x="1.7579791323448655" y="1198.9945076331685" width="747.580626029654" height="79.10906095551894" fill="transparent" stroke="#cccccc" stroke-width="1.318484349258649"/>
    <use href="#not-null-icon-darkgreen" x="680.7774190005491" y="1217.4532885227895" width="42.19149917627677" height="42.19149917627677" rx="8.438299835255355" ry="8.438299835255355"/>
    <text x="96.6888522789676" y="1251.206487863811" font-family="Cairo, Arial, sans-serif" font-size="35.159582646897306" fill="forestgreen" font-weight="normal">CREATED_AT</text>
    <text x="654.4077320153762" y="1251.206487863811" font-family="Cairo, Arial, sans-serif" font-size="35.159582646897306" text-anchor="end" fill="forestgreen" font-weight="normal">TIMESTAMP</text>
    <rect x="1.7579791323448655" y="1278.1035685886875" width="747.580626029654" height="79.10906095551894" fill="transparent" stroke="#cccccc" stroke-width="1.318484349258649"/>
    <use href="#not-null-icon-darkgreen" x="680.7774190005491" y="1296.5623494783085" width="42.19149917627677" height="42.19149917627677" rx="8.438299835255355" ry="8.438299835255355"/>
    <text x="96.6888522789676" y="1330.31554881933" font-family="Cairo, Arial, sans-serif" font-size="35.159582646897306" fill="forestgreen" font-weight="normal">UPDATED_ID</text>
    <text x="654.4077320153762" y="1330.31554881933" font-family="Cairo, Arial, sans-serif" font-size="35.159582646897306" text-anchor="end" fill="forestgreen" font-weight="normal">INTEGER</text>
    <rect x="1.7579791323448655" y="1357.2126295442065" width="747.580626029654" height="79.10906095551894" fill="transparent" stroke="transparent" stroke-width="1.318484349258649"/>
    <use href="#not-null-icon-darkgreen" x="680.7774190005491" y="1375.6714104338275" width="42.19149917627677" height="42.19149917627677" rx="8.438299835255355" ry="8.438299835255355"/>
    <text x="96.6888522789676" y="1409.424609774849" font-family="Cairo, Arial, sans-serif" font-size="35.159582646897306" fill="forestgreen" font-weight="normal">UPDATED_AT</text>
    <text x="654.4077320153762" y="1409.424609774849" font-family="Cairo, Arial, sans-serif" font-size="35.159582646897306" text-anchor="end" fill="forestgreen" font-weight="normal">TIMESTAMP</text>
    <rect x="1.7579791323448655" y="1.7579791323448655" width="747.580626029654" height="1434.5637113673806" fill="transparent" stroke="silver" stroke-width="2.636968698517298" rx="23.732718286655683" ry="23.732718286655683"/>
</g>
    <!-- table.lookups at (886.21, 59.52) -->
<defs>
    <filter id="shadow-lookups" x="-20%" y="-20%" width="140%" height="140%">
        <feDropShadow dx="2" dy="2" stdDeviation="1.5" flood-color="rgba(0,0,0,0.3)"/>
    </filter>
</defs>
<g transform="translate(886.209686985173, 59.519999999999996)" filter="url(#shadow-lookups)">
    <rect x="1.7579791323448655" y="1.7579791323448655" width="747.580626029654" height="1276.3455894563426" fill="white" stroke="transparent" stroke-width="2.636968698517298" rx="23.732718286655683" ry="23.732718286655683"/>
    <path d="M 25.490697419000547 1.7579791323448655 L 725.6058868753432 1.7579791323448655 Q 749.3386051619989 1.7579791323448655 749.3386051619989 25.490697419000547 L 749.3386051619989 91.46765425590335 L 1.7579791323448655 91.46765425590335 L 1.7579791323448655 25.490697419000547 Q 1.7579791323448655 1.7579791323448655 25.490697419000547 1.7579791323448655 Z" fill="skyblue" stroke="transparent" stroke-width="5.273937397034596"/>
    <text x="28.127666117517848" y="56.58055837451949" font-family="Cairo, Arial, sans-serif" font-size="42.19149917627677" font-weight="bold">LOOKUPS</text>    <text x="722.9689181768259" y="56.58055837451949" font-family="Cairo, Arial, sans-serif" font-size="31.643624382207577" font-weight="bold" fill="navy" text-anchor="end">1001</text>
    <rect x="1.7579791323448655" y="91.46765425590335" width="747.580626029654" height="79.10906095551894" fill="transparent" stroke="transparent" stroke-width="1.318484349258649"/>
    <use href="#key-icon-navy" x="28.127666117517848" y="109.92643514552444" width="42.19149917627677" height="42.19149917627677" rx="8.438299835255355" ry="8.438299835255355"/>
    <use href="#not-null-icon-navy" x="680.7774190005491" y="109.92643514552444" width="42.19149917627677" height="42.19149917627677" rx="8.438299835255355" ry="8.438299835255355"/>
    <text x="96.6888522789676" y="143.67963448654587" font-family="Cairo, Arial, sans-serif" font-size="35.159582646897306" fill="navy" font-weight="bold">LOOKUP_ID</text>
    <text x="654.4077320153762" y="143.67963448654587" font-family="Cairo, Arial, sans-serif" font-size="35.159582646897306" text-anchor="end" fill="navy" font-weight="bold">INTEGER</text>
    <rect x="1.7579791323448655" y="170.5767152114223" width="747.580626029654" height="79.10906095551894" fill="transparent" stroke="#cccccc" stroke-width="1.318484349258649"/>
    <use href="#key-icon-navy" x="28.127666117517848" y="189.0354961010434" width="42.19149917627677" height="42.19149917627677" rx="8.438299835255355" ry="8.438299835255355"/>
    <use href="#not-null-icon-navy" x="680.7774190005491" y="189.0354961010434" width="42.19149917627677" height="42.19149917627677" rx="8.438299835255355" ry="8.438299835255355"/>
    <text x="96.6888522789676" y="222.7886954420648" font-family="Cairo, Arial, sans-serif" font-size="35.159582646897306" fill="navy" font-weight="bold">KEY_IDX</text>
    <text x="654.4077320153762" y="222.7886954420648" font-family="Cairo, Arial, sans-serif" font-size="35.159582646897306" text-anchor="end" fill="navy" font-weight="bold">INTEGER</text>
    <rect x="1.7579791323448655" y="249.68577616694125" width="747.580626029654" height="79.10906095551894" fill="transparent" stroke="#cccccc" stroke-width="1.318484349258649"/>
    <use href="#lookup-icon-maroon" x="28.127666117517848" y="268.14455705656235" width="42.19149917627677" height="42.19149917627677" rx="8.438299835255355" ry="8.438299835255355"/>
    <use href="#not-null-icon-maroon" x="680.7774190005491" y="268.14455705656235" width="42.19149917627677" height="42.19149917627677" rx="8.438299835255355" ry="8.438299835255355"/>
    <text x="96.6888522789676" y="301.89775639758375" font-family="Cairo, Arial, sans-serif" font-size="35.159582646897306" fill="maroon" font-weight="normal">STATUS_A1</text>
    <text x="654.4077320153762" y="301.89775639758375" font-family="Cairo, Arial, sans-serif" font-size="35.159582646897306" text-anchor="end" fill="maroon" font-weight="normal">INTEGER</text>
    <rect x="1.7579791323448655" y="328.7948371224602" width="747.580626029654" height="79.10906095551894" fill="transparent" stroke="#cccccc" stroke-width="1.318484349258649"/>
    <text x="96.6888522789676" y="381.0068173531027" font-family="Cairo, Arial, sans-serif" font-size="35.159582646897306" fill="black" font-weight="normal">VALUE_TXT</text>
    <text x="654.4077320153762" y="381.0068173531027" font-family="Cairo, Arial, sans-serif" font-size="35.159582646897306" text-anchor="end" fill="black" font-weight="normal">VARCHAR(250)</text>
    <rect x="1.7579791323448655" y="407.90389807797914" width="747.580626029654" height="79.10906095551894" fill="transparent" stroke="#cccccc" stroke-width="1.318484349258649"/>
    <text x="96.6888522789676" y="460.11587830862163" font-family="Cairo, Arial, sans-serif" font-size="35.159582646897306" fill="black" font-weight="normal">VALUE_INT</text>
    <text x="654.4077320153762" y="460.11587830862163" font-family="Cairo, Arial, sans-serif" font-size="35.159582646897306" text-anchor="end" fill="black" font-weight="normal">INTEGER</text>
    <rect x="1.7579791323448655" y="487.0129590334981" width="747.580626029654" height="79.10906095551894" fill="transparent" stroke="#cccccc" stroke-width="1.318484349258649"/>
    <use href="#not-null-icon-black" x="680.7774190005491" y="505.4717399231192" width="42.19149917627677" height="42.19149917627677" rx="8.438299835255355" ry="8.438299835255355"/>
    <text x="96.6888522789676" y="539.2249392641406" font-family="Cairo, Arial, sans-serif" font-size="35.159582646897306" fill="black" font-weight="normal">SORT_SEQ</text>
    <text x="654.4077320153762" y="539.2249392641406" font-family="Cairo, Arial, sans-serif" font-size="35.159582646897306" text-anchor="end" fill="black" font-weight="normal">INTEGER</text>
    <rect x="1.7579791323448655" y="566.122019989017" width="747.580626029654" height="79.10906095551894" fill="transparent" stroke="#cccccc" stroke-width="1.318484349258649"/>
    <text x="96.6888522789676" y="618.3340002196595" font-family="Cairo, Arial, sans-serif" font-size="35.159582646897306" fill="black" font-weight="normal">CODE</text>
    <text x="654.4077320153762" y="618.3340002196595" font-family="Cairo, Arial, sans-serif" font-size="35.159582646897306" text-anchor="end" fill="black" font-weight="normal">CLOB(100K)</text>
    <rect x="1.7579791323448655" y="645.2310809445358" width="747.580626029654" height="79.10906095551894" fill="transparent" stroke="#cccccc" stroke-width="1.318484349258649"/>
    <text x="96.6888522789676" y="697.4430611751784" font-family="Cairo, Arial, sans-serif" font-size="35.159582646897306" fill="black" font-weight="normal">SUMMARY</text>
    <text x="654.4077320153762" y="697.4430611751784" font-family="Cairo, Arial, sans-serif" font-size="35.159582646897306" text-anchor="end" fill="black" font-weight="normal">CLOB(100K)</text>
    <rect x="1.7579791323448655" y="724.3401419000548" width="747.580626029654" height="79.10906095551894" fill="transparent" stroke="#cccccc" stroke-width="1.318484349258649"/>
    <text x="96.6888522789676" y="776.5521221306974" font-family="Cairo, Arial, sans-serif" font-size="35.159582646897306" fill="black" font-weight="normal">COLLECTION</text>
    <text x="654.4077320153762" y="776.5521221306974" font-family="Cairo, Arial, sans-serif" font-size="35.159582646897306" text-anchor="end" fill="black" font-weight="normal">CLOB(100K)</text>
    <rect x="1.7579791323448655" y="803.4492028555738" width="747.580626029654" height="79.10906095551894" fill="transparent" stroke="#cccccc" stroke-width="1.318484349258649"/>
    <text x="96.6888522789676" y="855.6611830862164" font-family="Cairo, Arial, sans-serif" font-size="35.159582646897306" fill="forestgreen" font-weight="normal">VALID_AFTER</text>
    <text x="654.4077320153762" y="855.6611830862164" font-family="Cairo, Arial, sans-serif" font-size="35.159582646897306" text-anchor="end" fill="forestgreen" font-weight="normal">TIMESTAMP</text>
    <rect x="1.7579791323448655" y="882.5582638110927" width="747.580626029654" height="79.10906095551894" fill="transparent" stroke="#cccccc" stroke-width="1.318484349258649"/>
    <text x="96.6888522789676" y="934.7702440417353" font-family="Cairo, Arial, sans-serif" font-size="35.159582646897306" fill="forestgreen" font-weight="normal">VALID_UNTIL</text>
    <text x="654.4077320153762" y="934.7702440417353" font-family="Cairo, Arial, sans-serif" font-size="35.159582646897306" text-anchor="end" fill="forestgreen" font-weight="normal">TIMESTAMP</text>
    <rect x="1.7579791323448655" y="961.6673247666116" width="747.580626029654" height="79.10906095551894" fill="transparent" stroke="#cccccc" stroke-width="1.318484349258649"/>
    <use href="#not-null-icon-darkgreen" x="680.7774190005491" y="980.1261056562327" width="42.19149917627677" height="42.19149917627677" rx="8.438299835255355" ry="8.438299835255355"/>
    <text x="96.6888522789676" y="1013.8793049972542" font-family="Cairo, Arial, sans-serif" font-size="35.159582646897306" fill="forestgreen" font-weight="normal">CREATED_ID</text>
    <text x="654.4077320153762" y="1013.8793049972542" font-family="Cairo, Arial, sans-serif" font-size="35.159582646897306" text-anchor="end" fill="forestgreen" font-weight="normal">INTEGER</text>
    <rect x="1.7579791323448655" y="1040.7763857221307" width="747.580626029654" height="79.10906095551894" fill="transparent" stroke="#cccccc" stroke-width="1.318484349258649"/>
    <use href="#not-null-icon-darkgreen" x="680.7774190005491" y="1059.2351666117518" width="42.19149917627677" height="42.19149917627677" rx="8.438299835255355" ry="8.438299835255355"/>
    <text x="96.6888522789676" y="1092.9883659527732" font-family="Cairo, Arial, sans-serif" font-size="35.159582646897306" fill="forestgreen" font-weight="normal">CREATED_AT</text>
    <text x="654.4077320153762" y="1092.9883659527732" font-family="Cairo, Arial, sans-serif" font-size="35.159582646897306" text-anchor="end" fill="forestgreen" font-weight="normal">TIMESTAMP</text>
    <rect x="1.7579791323448655" y="1119.8854466776497" width="747.580626029654" height="79.10906095551894" fill="transparent" stroke="#cccccc" stroke-width="1.318484349258649"/>
    <use href="#not-null-icon-darkgreen" x="680.7774190005491" y="1138.3442275672708" width="42.19149917627677" height="42.19149917627677" rx="8.438299835255355" ry="8.438299835255355"/>
    <text x="96.6888522789676" y="1172.0974269082922" font-family="Cairo, Arial, sans-serif" font-size="35.159582646897306" fill="forestgreen" font-weight="normal">UPDATED_ID</text>
    <text x="654.4077320153762" y="1172.0974269082922" font-family="Cairo, Arial, sans-serif" font-size="35.159582646897306" text-anchor="end" fill="forestgreen" font-weight="normal">INTEGER</text>
    <rect x="1.7579791323448655" y="1198.9945076331685" width="747.580626029654" height="79.10906095551894" fill="transparent" stroke="transparent" stroke-width="1.318484349258649"/>
    <use href="#not-null-icon-darkgreen" x="680.7774190005491" y="1217.4532885227895" width="42.19149917627677" height="42.19149917627677" rx="8.438299835255355" ry="8.438299835255355"/>
    <text x="96.6888522789676" y="1251.206487863811" font-family="Cairo, Arial, sans-serif" font-size="35.159582646897306" fill="forestgreen" font-weight="normal">UPDATED_AT</text>
    <text x="654.4077320153762" y="1251.206487863811" font-family="Cairo, Arial, sans-serif" font-size="35.159582646897306" text-anchor="end" fill="forestgreen" font-weight="normal">TIMESTAMP</text>
    <rect x="1.7579791323448655" y="1.7579791323448655" width="747.580626029654" height="1276.3455894563426" fill="transparent" stroke="silver" stroke-width="2.636968698517298" rx="23.732718286655683" ry="23.732718286655683"/>
</g>
    <!-- table.account_access at (1712.90, 59.52) -->
<defs>
    <filter id="shadow-account-access" x="-20%" y="-20%" width="140%" height="140%">
        <feDropShadow dx="2" dy="2" stdDeviation="1.5" flood-color="rgba(0,0,0,0.3)"/>
    </filter>
</defs>
<g transform="translate(1712.899373970346, 59.519999999999996)" filter="url(#shadow-account-access)">
    <rect x="1.7579791323448655" y="1.7579791323448655" width="747.580626029654" height="1118.1274675453049" fill="white" stroke="transparent" stroke-width="2.636968698517298" rx="23.732718286655683" ry="23.732718286655683"/>
    <path d="M 25.490697419000547 1.7579791323448655 L 725.6058868753432 1.7579791323448655 Q 749.3386051619989 1.7579791323448655 749.3386051619989 25.490697419000547 L 749.3386051619989 91.46765425590335 L 1.7579791323448655 91.46765425590335 L 1.7579791323448655 25.490697419000547 Q 1.7579791323448655 1.7579791323448655 25.490697419000547 1.7579791323448655 Z" fill="#ffeb3b" stroke="transparent" stroke-width="5.273937397034596"/>
    <text x="28.127666117517848" y="56.58055837451949" font-family="Cairo, Arial, sans-serif" font-size="42.19149917627677" font-weight="bold">ACCOUNT_ACCESS</text>    <text x="722.9689181768259" y="56.58055837451949" font-family="Cairo, Arial, sans-serif" font-size="31.643624382207577" font-weight="bold" fill="navy" text-anchor="end">1002</text>
    <rect x="1.7579791323448655" y="91.46765425590335" width="747.580626029654" height="79.10906095551894" fill="yellow" stroke="transparent" stroke-width="1.318484349258649"/>
    <use href="#key-icon-navy" x="28.127666117517848" y="109.92643514552444" width="42.19149917627677" height="42.19149917627677" rx="8.438299835255355" ry="8.438299835255355"/>
    <use href="#not-null-icon-navy" x="680.7774190005491" y="109.92643514552444" width="42.19149917627677" height="42.19149917627677" rx="8.438299835255355" ry="8.438299835255355"/>
    <text x="96.6888522789676" y="143.67963448654587" font-family="Cairo, Arial, sans-serif" font-size="35.159582646897306" fill="navy" font-weight="bold">ACCESS_ID</text>
    <text x="654.4077320153762" y="143.67963448654587" font-family="Cairo, Arial, sans-serif" font-size="35.159582646897306" text-anchor="end" fill="navy" font-weight="bold">INTEGER</text>
    <rect x="1.7579791323448655" y="170.5767152114223" width="747.580626029654" height="79.10906095551894" fill="yellow" stroke="#cccccc" stroke-width="1.318484349258649"/>
    <use href="#key-icon-navy" x="28.127666117517848" y="189.0354961010434" width="42.19149917627677" height="42.19149917627677" rx="8.438299835255355" ry="8.438299835255355"/>
    <use href="#not-null-icon-navy" x="680.7774190005491" y="189.0354961010434" width="42.19149917627677" height="42.19149917627677" rx="8.438299835255355" ry="8.438299835255355"/>
    <text x="96.6888522789676" y="222.7886954420648" font-family="Cairo, Arial, sans-serif" font-size="35.159582646897306" fill="navy" font-weight="bold">ACCOUNT_ID</text>
    <text x="654.4077320153762" y="222.7886954420648" font-family="Cairo, Arial, sans-serif" font-size="35.159582646897306" text-anchor="end" fill="navy" font-weight="bold">INTEGER</text>
    <rect x="1.7579791323448655" y="249.68577616694125" width="747.580626029654" height="79.10906095551894" fill="yellow" stroke="#cccccc" stroke-width="1.318484349258649"/>
    <use href="#lookup-icon-maroon" x="28.127666117517848" y="268.14455705656235" width="42.19149917627677" height="42.19149917627677" rx="8.438299835255355" ry="8.438299835255355"/>
    <use href="#not-null-icon-maroon" x="680.7774190005491" y="268.14455705656235" width="42.19149917627677" height="42.19149917627677" rx="8.438299835255355" ry="8.438299835255355"/>
    <text x="96.6888522789676" y="301.89775639758375" font-family="Cairo, Arial, sans-serif" font-size="35.159582646897306" fill="maroon" font-weight="normal">FEATURE_A21</text>
    <text x="654.4077320153762" y="301.89775639758375" font-family="Cairo, Arial, sans-serif" font-size="35.159582646897306" text-anchor="end" fill="maroon" font-weight="normal">INTEGER</text>
    <rect x="1.7579791323448655" y="328.7948371224602" width="747.580626029654" height="79.10906095551894" fill="yellow" stroke="#cccccc" stroke-width="1.318484349258649"/>
    <use href="#lookup-icon-maroon" x="28.127666117517848" y="347.2536180120813" width="42.19149917627677" height="42.19149917627677" rx="8.438299835255355" ry="8.438299835255355"/>
    <use href="#not-null-icon-maroon" x="680.7774190005491" y="347.2536180120813" width="42.19149917627677" height="42.19149917627677" rx="8.438299835255355" ry="8.438299835255355"/>
    <text x="96.6888522789676" y="381.0068173531027" font-family="Cairo, Arial, sans-serif" font-size="35.159582646897306" fill="maroon" font-weight="normal">ACCESS_TYPE_A22</text>
    <text x="654.4077320153762" y="381.0068173531027" font-family="Cairo, Arial, sans-serif" font-size="35.159582646897306" text-anchor="end" fill="maroon" font-weight="normal">INTEGER</text>
    <rect x="1.7579791323448655" y="407.90389807797914" width="747.580626029654" height="79.10906095551894" fill="yellow" stroke="#cccccc" stroke-width="1.318484349258649"/>
    <use href="#lookup-icon-maroon" x="28.127666117517848" y="426.36267896760023" width="42.19149917627677" height="42.19149917627677" rx="8.438299835255355" ry="8.438299835255355"/>
    <use href="#not-null-icon-maroon" x="680.7774190005491" y="426.36267896760023" width="42.19149917627677" height="42.19149917627677" rx="8.438299835255355" ry="8.438299835255355"/>
    <text x="96.6888522789676" y="460.11587830862163" font-family="Cairo, Arial, sans-serif" font-size="35.159582646897306" fill="maroon" font-weight="normal">STATUS_A23</text>
    <text x="654.4077320153762" y="460.11587830862163" font-family="Cairo, Arial, sans-serif" font-size="35.159582646897306" text-anchor="end" fill="maroon" font-weight="normal">INTEGER</text>
    <rect x="1.7579791323448655" y="487.0129590334981" width="747.580626029654" height="79.10906095551894" fill="yellow" stroke="#cccccc" stroke-width="1.318484349258649"/>
    <text x="96.6888522789676" y="539.2249392641406" font-family="Cairo, Arial, sans-serif" font-size="35.159582646897306" fill="black" font-weight="normal">SUMMARY</text>
    <text x="654.4077320153762" y="539.2249392641406" font-family="Cairo, Arial, sans-serif" font-size="35.159582646897306" text-anchor="end" fill="black" font-weight="normal">CLOB(100K)</text>
    <rect x="1.7579791323448655" y="566.122019989017" width="747.580626029654" height="79.10906095551894" fill="yellow" stroke="#cccccc" stroke-width="1.318484349258649"/>
    <text x="96.6888522789676" y="618.3340002196595" font-family="Cairo, Arial, sans-serif" font-size="35.159582646897306" fill="black" font-weight="normal">COLLECTION</text>
    <text x="654.4077320153762" y="618.3340002196595" font-family="Cairo, Arial, sans-serif" font-size="35.159582646897306" text-anchor="end" fill="black" font-weight="normal">CLOB(100K)</text>
    <rect x="1.7579791323448655" y="645.2310809445358" width="747.580626029654" height="79.10906095551894" fill="yellow" stroke="#cccccc" stroke-width="1.318484349258649"/>
    <text x="96.6888522789676" y="697.4430611751784" font-family="Cairo, Arial, sans-serif" font-size="35.159582646897306" fill="forestgreen" font-weight="normal">VALID_AFTER</text>
    <text x="654.4077320153762" y="697.4430611751784" font-family="Cairo, Arial, sans-serif" font-size="35.159582646897306" text-anchor="end" fill="forestgreen" font-weight="normal">TIMESTAMP</text>
    <rect x="1.7579791323448655" y="724.3401419000548" width="747.580626029654" height="79.10906095551894" fill="yellow" stroke="#cccccc" stroke-width="1.318484349258649"/>
    <text x="96.6888522789676" y="776.5521221306974" font-family="Cairo, Arial, sans-serif" font-size="35.159582646897306" fill="forestgreen" font-weight="normal">VALID_UNTIL</text>
    <text x="654.4077320153762" y="776.5521221306974" font-family="Cairo, Arial, sans-serif" font-size="35.159582646897306" text-anchor="end" fill="forestgreen" font-weight="normal">TIMESTAMP</text>
    <rect x="1.7579791323448655" y="803.4492028555738" width="747.580626029654" height="79.10906095551894" fill="yellow" stroke="#cccccc" stroke-width="1.318484349258649"/>
    <use href="#not-null-icon-darkgreen" x="680.7774190005491" y="821.9079837451949" width="42.19149917627677" height="42.19149917627677" rx="8.438299835255355" ry="8.438299835255355"/>
    <text x="96.6888522789676" y="855.6611830862164" font-family="Cairo, Arial, sans-serif" font-size="35.159582646897306" fill="forestgreen" font-weight="normal">CREATED_ID</text>
    <text x="654.4077320153762" y="855.6611830862164" font-family="Cairo, Arial, sans-serif" font-size="35.159582646897306" text-anchor="end" fill="forestgreen" font-weight="normal">INTEGER</text>
    <rect x="1.7579791323448655" y="882.5582638110927" width="747.580626029654" height="79.10906095551894" fill="yellow" stroke="#cccccc" stroke-width="1.318484349258649"/>
    <use href="#not-null-icon-darkgreen" x="680.7774190005491" y="901.0170447007138" width="42.19149917627677" height="42.19149917627677" rx="8.438299835255355" ry="8.438299835255355"/>
    <text x="96.6888522789676" y="934.7702440417353" font-family="Cairo, Arial, sans-serif" font-size="35.159582646897306" fill="forestgreen" font-weight="normal">CREATED_AT</text>
    <text x="654.4077320153762" y="934.7702440417353" font-family="Cairo, Arial, sans-serif" font-size="35.159582646897306" text-anchor="end" fill="forestgreen" font-weight="normal">TIMESTAMP</text>
    <rect x="1.7579791323448655" y="961.6673247666116" width="747.580626029654" height="79.10906095551894" fill="yellow" stroke="#cccccc" stroke-width="1.318484349258649"/>
    <use href="#not-null-icon-darkgreen" x="680.7774190005491" y="980.1261056562327" width="42.19149917627677" height="42.19149917627677" rx="8.438299835255355" ry="8.438299835255355"/>
    <text x="96.6888522789676" y="1013.8793049972542" font-family="Cairo, Arial, sans-serif" font-size="35.159582646897306" fill="forestgreen" font-weight="normal">UPDATED_ID</text>
    <text x="654.4077320153762" y="1013.8793049972542" font-family="Cairo, Arial, sans-serif" font-size="35.159582646897306" text-anchor="end" fill="forestgreen" font-weight="normal">INTEGER</text>
    <rect x="1.7579791323448655" y="1040.7763857221307" width="747.580626029654" height="79.10906095551894" fill="yellow" stroke="transparent" stroke-width="1.318484349258649"/>
    <use href="#not-null-icon-darkgreen" x="680.7774190005491" y="1059.2351666117518" width="42.19149917627677" height="42.19149917627677" rx="8.438299835255355" ry="8.438299835255355"/>
    <text x="96.6888522789676" y="1092.9883659527732" font-family="Cairo, Arial, sans-serif" font-size="35.159582646897306" fill="forestgreen" font-weight="normal">UPDATED_AT</text>
    <text x="654.4077320153762" y="1092.9883659527732" font-family="Cairo, Arial, sans-serif" font-size="35.159582646897306" text-anchor="end" fill="forestgreen" font-weight="normal">TIMESTAMP</text>
    <rect x="1.7579791323448655" y="1.7579791323448655" width="747.580626029654" height="1118.1274675453049" fill="transparent" stroke="silver" stroke-width="2.636968698517298" rx="23.732718286655683" ry="23.732718286655683"/>
</g>
</g>

                                </g>
                            </svg>
